<svg xmlns="http://www.w3.org/2000/svg" viewBox="0 0 1057.1 473.98"><defs><style>.cls-1{isolation:isolate;}.cls-2{fill:#fff;}.cls-3{fill:#ec2156;}</style></defs><g id="Layer_2" data-name="Layer 2"><g id="Layer_1-2" data-name="Layer 1"><g class="cls-1"><path class="cls-2" d="M132,289.38c22.9,0,42.6,2,59,5.8s29.5,9.5,39,16.9,16.5,15.9,20.8,25.6,6.5,21,6.5,33.8H195.2c-.2-.9-.5-2-.9-3.4s-2-3.8-4.6-7.2a40.66,40.66,0,0,0-10.1-9.1c-4.2-2.7-10.4-5.1-18.9-7.3s-18.2-3.2-29.2-3.2a131.11,131.11,0,0,0-25.9,2.3q-11.1,2.4-17.4,6a29.93,29.93,0,0,0-10.1,9.2,35.54,35.54,0,0,0-5.1,10.9,48.48,48.48,0,0,0-1.3,11.8,42.42,42.42,0,0,0,2.9,16.1,34.5,34.5,0,0,0,9.4,12.9c4.3,3.9,10.5,6.9,18.5,9s17.7,3.1,29.1,3.1a161.34,161.34,0,0,0,30.7-2.6c8.7-1.7,15-3.8,19-6.2a45.46,45.46,0,0,0,9.5-7.4c2.3-2.5,3.7-4.6,4-6.4l.5-2.6h62.1a78.19,78.19,0,0,1-3.4,24,59.47,59.47,0,0,1-12,20.9,67.36,67.36,0,0,1-22.2,16.9c-9.1,4.5-20.9,8.1-35.5,10.8s-31.5,4-50.7,4c-23.6,0-43.3-1.8-59.3-5.3s-28.7-9.2-38.3-16.9a65.29,65.29,0,0,1-20.7-28c-4.2-10.9-6.2-24.4-6.2-40.3,0-17.2,2.6-31.8,7.9-44.1A68.14,68.14,0,0,1,40.8,310c10.6-7.4,23.3-12.7,38.2-16C93.9,291,111.6,289.38,132,289.38Z"/><path class="cls-2" d="M486.2,358q0,43.2-33.5,61.6l37.4,53.8-69.9-.3L389,430.18H334.1v43.2H273.5V291H407.7q5.25,0,9.9.3a120.78,120.78,0,0,1,13.1,1.7,100.32,100.32,0,0,1,15.3,3.9,73.09,73.09,0,0,1,14.7,7.5,52.11,52.11,0,0,1,13.1,12,56.19,56.19,0,0,1,8.8,17.5A74.9,74.9,0,0,1,486.2,358Zm-84.3,19c15.1,0,22.6-5.7,22.6-17.2q0-15.6-23.7-15.6H334V377Z"/><path class="cls-2" d="M498.9,473.48V291h60.6v182.5Z"/><path class="cls-2" d="M749,291.48l81.9,182H760.7l-13.8-30.7H656.7l-13.8,30.7H573l81.9-182Zm-70.7,98.8h47.1l-23.7-47.8Z"/><path class="cls-2" d="M933.3,291.48c14,0,26.2.3,36.5.9s19.8,1.6,28.3,2.9a92.66,92.66,0,0,1,21.5,5.6,65.14,65.14,0,0,1,14.8,8.4,33.2,33.2,0,0,1,9.8,12.1,65.8,65.8,0,0,1,5.1,15.9,118.52,118.52,0,0,1,1.6,20.3H986.4a13.07,13.07,0,0,0-1.4-6.5c-1-1.6-3.1-3.1-6.4-4.5s-8.5-2.5-15.6-3.1-16.5-.9-28.1-.9c-15.4,0-26.7.3-33.8,1s-11.6,1.6-13.5,2.6-2.9,2.9-2.9,5.5c.2,2.3,2.6,3.8,7.1,4.6s18.4,2.1,41.5,4a1.14,1.14,0,0,1,.8.3q68.7,5.4,87.1,9.9,24.15,5.7,31.2,19.5c3.1,6.2,4.7,15.3,4.7,27a104,104,0,0,1-1.7,20.5,36.32,36.32,0,0,1-6.8,14.8,34.69,34.69,0,0,1-13.1,10.5c-5.4,2.5-12.8,4.6-22.4,6.4a258.67,258.67,0,0,1-32.6,3.5q-18.3.9-45.6.9c-12.5,0-23.3-.2-32.4-.5s-17.6-1-25.5-1.8a137.13,137.13,0,0,1-19.6-3.4,57,57,0,0,1-14-5.7,36.75,36.75,0,0,1-9.8-7.9,37.92,37.92,0,0,1-5.9-11,60.64,60.64,0,0,1-3.1-14.3c-.5-5-.8-11-.8-17.9h62.7c0,4,1.1,6.8,3.2,8.5s6.8,2.9,13.8,3.6,18.4,1.2,34.2,1.2h6.2c19.8,0,31.8-.3,36-1s6.4-2.9,6.4-6.8c0-2.2-1.5-3.7-4.4-4.4s-11.1-1.5-24.4-2.3c-9.7-.7-17.8-1.3-24.2-1.8-11.6-1-20.4-1.9-26.4-2.5s-13.3-1.4-22.1-2.5a142.06,142.06,0,0,1-19.8-3.4q-6.6-1.8-15.3-4.8c-5.8-2-10.1-4.2-12.7-6.8a75.68,75.68,0,0,1-8.3-9.1,28.75,28.75,0,0,1-5.8-12.2,73.11,73.11,0,0,1-1.6-15.5,107.78,107.78,0,0,1,1.4-18.2,45.74,45.74,0,0,1,4.9-13.9,47.8,47.8,0,0,1,7.8-10.5,35.25,35.25,0,0,1,11.7-7.5,89.8,89.8,0,0,1,15.2-4.9,145.81,145.81,0,0,1,19.6-2.9c7.9-.7,15.6-1.1,23.3-1.3C912.9,291.58,922.3,291.48,933.3,291.48Z"/></g><g class="cls-1"><path class="cls-3" d="M523.3,181.58a51.84,51.84,0,0,1-25.2-8.1c-7.5-4.8-11-11.9-10.4-21.2,2.5-16.8,14.6-33.7,36-51,21.6-17.3,47.8-33.1,78.4-47.8a673.78,673.78,0,0,1,90.5-36.4c29.7-9.6,54.1-15.2,73-16.6,55.5-4,93.4,16.8,71.8,76.1-8.9,23.7-23.3,46-43.1,66.6a374.17,374.17,0,0,1-65.3,54.5q-35.55,23.4-68.2,36.8c-.6.2-1,.2-1.5.4-4.8,1.7-5.4,2.3-.6,5.4,7.3,5.2,16,11.9,26,19.5,38.1,29.3,91.1,69.9,124.2,70.3,6.7,0,7.5,6.7,0,6.7-38.1-.2-95.9-42.6-136.6-72.4-8.9-6.4-16.8-12.3-23.7-17.1-1.5-1-2.7-2.1-3.7-2.7-3.3-2.9-4.2-2.9-8.7-1.7-1,.2-2.1.6-3.5.8-11.9,2.3-19.5,1.5-23.3-2.5-3.5-4-4.4-8.3-2.5-13.1,1.9-5,5.4-7.9,10.6-8.5,6,0,13.5,3.1,18.5,6.2a8.51,8.51,0,0,0,2.3,1.2c4.2,2.5,4.4,2.5,8.1.8a21.23,21.23,0,0,0,3.5-1.5c27.5-10.4,54.9-25.4,82.2-44.7,27.5-19.5,50.3-40.8,68.8-63.8C815.2,99.48,825,82,830,65.18c5.2-16.8,2.9-30.6-6.4-40.8s-28.3-14.6-57-12.9c-17.7,1.5-40.8,6.9-69.7,16.2a749.23,749.23,0,0,0-88.2,34.9q-44.85,20.85-76.7,44.9c-21,16-32.9,31.4-35.4,46.4-.6,13.9,30.6,20.8,32.2,12.9.8-3.1,3.5-4,6.2-3.7,6.7,1.2,15.8,5.8,9.6,13.3C539.7,180.48,532.6,182.18,523.3,181.58Zm85.7-27.7c7.7-12.3,14.8-24.7,21.6-37.6,1.5-2.5,1.7-3.7-.6-4.4-5-1.7-4.4-5-1.9-9.2,3.7-6.7,21.2-27.5,29.5-19.5,2.3,2.3,2.1,6.4.6,8.9-7.7,13.7-15.6,27.2-23.9,40.6l-5,8.1c-2.9,4.6-8.1,12.9-15.6,24.7-11.6,18.1-25.4,39.7-41,64.9s-29.7,48-42,68.8c-12.3,21-18.9,34.3-20.4,40.1-.2,2.7-1.5,5.8-5,5.6-2.7-.6-2.7-4-1.9-6.7v-1q2.25-10.65,16.8-37.2c9.8-17.7,21.2-37,33.9-57.8s24.3-39.3,34.5-55.7c7.7-12.3,13.3-21.2,16.8-27C606.7,157.58,607.9,155.78,609,153.88ZM623.9,234c2.1,0,3.3,0,.6-1.2a3.26,3.26,0,0,0-1.2-.6c-2.9-1.7-7.7-4.2-6.9,0,.8,1.7,4.2,1.9,5.6,1.9h1.9Z"/><path class="cls-3" d="M691.5,376.38c9.6-20,21.8-44.1,37-72.6q28.65-53.7,56.4-101.3c4.8-8.3,9.2-16,13.1-22.9,12.7-23.1,22.5-38.9,29.1-47,6.9-8.1,12.9-8.5,18.5-1,.2,6.4-8.1,16.4-18.1,27.2a145.67,145.67,0,0,0-17.7,22.5c-10.2,17.9-22.5,39.3-36.4,64.5-14.1,25.2-25.8,46.4-34.9,63.4-2.3,4-4.8,8.7-7.9,14.1-11.4,19.8-22.9,40.6,5.4,2.7,1.9-2.5,4-5.2,5.8-7.9q30.6-41.55,69.9-90.1c26.2-32.3,51.2-58,75.1-77.4,11.4-8.5,19.3-11.4,23.7-8.9,4.6,2.3,6.7,7.5,6,15.6-1.2,14.1-6.9,28.7-16.6,43.9a224.2,224.2,0,0,1-34.3,41c-12.9,12.3-24.5,21.4-34.7,27.5s-16.4,7.1-18.5,3.1c-.6-1.5,1-2.1,2.7-2.3,7.1-1.7,16.2-7.3,27.2-17.1a309.32,309.32,0,0,0,33.3-34.1q16.5-19.65,25.6-37.4c6.2-11.9,7.9-21,5-27.2-.8-2.5-5-.8-12.5,4.8-20.4,16.2-42.8,38.9-67.4,67.8-24.3,28.9-48.5,59.5-72,91.5q-35.55,48-62.2,85.7c-4.4,6-8.3,11.9-12.1,17.1-4.4,5.2-8.3-2.7-5.8-9.2C676.1,408.48,681.8,396.38,691.5,376.38Z"/><path class="cls-3" d="M1045.9,185.08a198.2,198.2,0,0,1-12.7,25.2c-.6.8-1,1.7-1.5,2.5-2.9,5.2-5.8,10.2-8.5,15.4-4.6,8.3-9.4,16.6-14.6,25.2-5,7.9-4.8,8.9-2.7,11.2l.4.4a4.94,4.94,0,0,1-.8,6.7c-9.2,6.7-15.4,12.9-21.4,22.3-3.3,5.6-7.5,12.5-12.7,21-11.6,19.5-24.3,39.9-38.3,61.1-13.7,21.4-24.3,35.1-31.8,41.4-10.6,6.9-17.5,2.7-15.2-9.6a139.4,139.4,0,0,1,13.7-33.1,212.38,212.38,0,0,1,19.8-29.9,535.64,535.64,0,0,1,44.9-50.3c10.8-10.6,17.7-18.3,25.8-31l30.6-49.1a132.87,132.87,0,0,0,6.9-11.4c6.2-11.4-3.7-3.5-8.9,1-.8.6-1.5,1.2-2.1,1.7-3.5,2.7-9.4,7.5-17.1,14.1-9.6,8.1-20.4,17.3-32.7,27.2a409.37,409.37,0,0,1-34.3,25.4c-10.6,7.1-18.5,10.4-23.3,10.2-11.6,0-13.1-8.5-11.2-18.3,2.9-14.6,10.4-30.2,22.5-47a185.3,185.3,0,0,1,42.4-42.8c16.2-11.6,32-17.1,47.6-16,12.3,1.7,15.4,15.2,1.9,17.3-2.7.6-3.5-.4-4.4-1.9-.8-2.1-2.5-4.6-10.2-2.9-12.3,2.3-24.7,8.7-37.6,19.1A180.11,180.11,0,0,0,926.5,226c-9.8,13.5-15.8,26.2-18.1,38.1-3.7,20,24.8-4.6,27.9-7.5,24.3-20.8,49.1-41,74.5-60.3,8.1-6.2,16.2-12.3,24.5-18.1C1039.5,176.78,1049,179.48,1045.9,185.08ZM933.8,354.58c2.1-3.7,3.5-6.2,4.2-7.3.2-.4.6-1,1.2-1.9,3.1-4.8,10.2-15.4,7.9-17.1-5.4-3.7-59.9,83.6-49.9,80.7C904.3,407.18,924.7,371,933.8,354.58Z"/></g><g class="cls-1"><path class="cls-2" d="M306.3,101a247.31,247.31,0,0,1,39.2,2.8A157.25,157.25,0,0,1,375,111a88.82,88.82,0,0,1,20.8,11c5.9,4.4,10.6,8.7,13.9,13.1a62.86,62.86,0,0,1,8.1,14.3,61.18,61.18,0,0,1,4,13.9,89.07,89.07,0,0,1,.9,12.9v6.1a87.29,87.29,0,0,1-.9,12.7,69,69,0,0,1-12,28.5,68.67,68.67,0,0,1-13.9,13.3A87.51,87.51,0,0,1,375.1,248c-7.9,3.1-17.7,5.5-29.5,7.4a248,248,0,0,1-39.3,2.9H116.6a250.21,250.21,0,0,1-39.4-2.9A151.5,151.5,0,0,1,47.6,248a91.23,91.23,0,0,1-20.8-11.2,64.35,64.35,0,0,1-14-13.3,60.24,60.24,0,0,1-8-14.5A66.66,66.66,0,0,1,.9,195a87.29,87.29,0,0,1-.9-12.7v-6.1a87.67,87.67,0,0,1,.9-12.8,69.39,69.39,0,0,1,3.9-13.9,59.6,59.6,0,0,1,8-14.4c3.3-4.4,8-8.7,13.9-13.1a85.24,85.24,0,0,1,20.8-11q11.85-4.5,29.7-7.2a263.47,263.47,0,0,1,39.4-2.8Zm62.1,76.5a34.85,34.85,0,0,0-1.6-10.8,31.17,31.17,0,0,0-6-10.6,37.71,37.71,0,0,0-11.6-9.4c-4.7-2.6-11.2-4.7-19.4-6.4a135.82,135.82,0,0,0-22.8-2.5c-1.8-.1-188.5-.1-189.7,0-42.1.8-63.1,14-63.1,39.8V180a34.54,34.54,0,0,0,2.8,13.9A41.66,41.66,0,0,0,66.5,207c4.4,4.4,11.3,7.8,20.7,10.4,8.6,2.4,19,3.7,31,3.9H306.3c11.2-.3,20.8-1.5,28.9-3.7,9.3-2.5,16.2-5.9,20.8-10.2a39.66,39.66,0,0,0,9.7-13,34.54,34.54,0,0,0,2.8-13.9l-.1-3Z"/><path class="cls-2" d="M536.8,260.88c-17,0-31.9-1.3-44.6-4s-22.5-5.9-29.4-9.7a50,50,0,0,1-16.4-13.8q-6.15-8.1-7.8-14.7a56.91,56.91,0,0,1-1.7-13.9v-2.3h55.9c1.2,16.6,13.3,24.9,45.9,24.9h12.4a145.29,145.29,0,0,0,22.3-1.4c7-.9,12.2-2.2,15.4-3.9s5.4-3.4,6.4-5.2a11.46,11.46,0,0,0,1.6-6.2c0-3.4-.9-6-2.8-8s-6.1-3.7-12.9-5.2-16.5-2.4-29.2-2.6l-16.8-.4-12.6-.3q-83.4-2.1-83.4-46v-1.9a44.68,44.68,0,0,1,2.1-14,33.57,33.57,0,0,1,8.3-12.9,50.56,50.56,0,0,1,16.2-10.9c6.7-3,15.7-5.4,27-7.3a241.65,241.65,0,0,1,39.5-2.8h15.9a254.13,254.13,0,0,1,41.4,3c12,2,21.5,4.5,28.6,7.6a57.65,57.65,0,0,1,17.5,11.4,39.72,39.72,0,0,1,9.3,13.4,39.29,39.29,0,0,1,2.5,14.2v2.1H591.8a15.59,15.59,0,0,0-1.3-4.3,16.34,16.34,0,0,0-3.8-4.7,21.53,21.53,0,0,0-7.8-4.8c-3.2-1.3-8-2.4-14.4-3.4a112.06,112.06,0,0,0-19.7-1.5h-8c-12.9,0-21,.7-27.9,2.2s-11.1,3-12.5,4.6a9.25,9.25,0,0,0-2.2,6.6,8.84,8.84,0,0,0,2.4,6.5c1.6,1.7,5.4,3.2,11.5,4.6s14.6,2.2,25.6,2.3l12.6.2,16.1.2c31.9.6,54.9,4.5,69.1,11.9s21.3,18.9,21.3,34.7v3a52.84,52.84,0,0,1-2.1,15.5c-1.4,4.6-4.2,9.2-8.5,14a50.28,50.28,0,0,1-17.1,12c-7.1,3.2-16.9,5.9-29.2,7.9a272.83,272.83,0,0,1-43.3,3.1l-15.8.2Z"/></g></g></g></svg>