<?xml version="1.0" encoding="utf-8"?>
<!-- Generator: Adobe Illustrator 26.0.0, SVG Export Plug-In . SVG Version: 6.00 Build 0)  -->
<svg version="1.1" id="Layer_1" xmlns="http://www.w3.org/2000/svg" xmlns:xlink="http://www.w3.org/1999/xlink" x="0px" y="0px"
	 viewBox="0 0 184 60" style="enable-background:new 0 0 184 60;" xml:space="preserve">
<style type="text/css">
	.st0{enable-background:new    ;}
	.st1{fill:#FFFFFF;}
	.st2{fill:#E72858;}
</style>
<g>
	<g class="st0">
		<path class="st1" d="M46.2,36c2.6,0,4.9,0.2,6.8,0.7c1.9,0.5,3.4,1.1,4.5,2s1.9,1.8,2.4,3c0.5,1.1,0.8,2.4,0.8,3.9h-7.2
			c0-0.1-0.1-0.2-0.1-0.4s-0.2-0.4-0.5-0.8c-0.3-0.4-0.7-0.7-1.2-1.1c-0.5-0.3-1.2-0.6-2.2-0.8c-1-0.3-2.1-0.4-3.4-0.4
			c-1.1,0-2.1,0.1-3,0.3s-1.5,0.4-2,0.7s-0.9,0.6-1.2,1.1c-0.3,0.4-0.5,0.9-0.6,1.3c-0.1,0.4-0.2,0.9-0.2,1.4c0,0.7,0.1,1.3,0.3,1.9
			c0.2,0.5,0.6,1,1.1,1.5s1.2,0.8,2.1,1s2,0.4,3.4,0.4s2.5-0.1,3.5-0.3s1.7-0.4,2.2-0.7s0.8-0.6,1.1-0.9c0.3-0.3,0.4-0.5,0.5-0.7
			l0.1-0.3h7.2c0,1-0.1,2-0.4,2.8c-0.3,0.8-0.7,1.6-1.4,2.4c-0.7,0.8-1.5,1.4-2.6,2c-1.1,0.5-2.4,0.9-4.1,1.2
			c-1.7,0.3-3.6,0.5-5.9,0.5c-2.7,0-5-0.2-6.8-0.6c-1.8-0.4-3.3-1.1-4.4-2c-1.1-0.9-1.9-2-2.4-3.2c-0.5-1.3-0.7-2.8-0.7-4.7
			c0-2,0.3-3.7,0.9-5.1c0.6-1.4,1.5-2.5,2.7-3.4s2.7-1.5,4.4-1.8C41.8,36.2,43.9,36,46.2,36z"/>
		<path class="st1" d="M87.1,44c0,3.3-1.3,5.7-3.9,7.1l4.3,6.2h-8.1l-3.6-5h-6.3v5h-7V36.2h7H78c0.4,0,0.8,0,1.1,0
			c0.4,0,0.9,0.1,1.5,0.2c0.6,0.1,1.2,0.3,1.8,0.5c0.5,0.2,1.1,0.5,1.7,0.9s1.1,0.9,1.5,1.4s0.8,1.2,1,2C87,42,87.1,42.9,87.1,44z
			 M77.4,46.2c1.7,0,2.6-0.7,2.6-2c0-1.2-0.9-1.8-2.7-1.8h-7.7v3.8H77.4L77.4,46.2z"/>
		<path class="st1" d="M88.6,57.3V36.2h7v21.1C95.6,57.3,88.6,57.3,88.6,57.3z"/>
		<path class="st1" d="M117.5,36.3l9.5,21h-8.1l-1.6-3.5h-10.4l-1.6,3.5h-8.1l9.5-21H117.5L117.5,36.3z M109.3,47.7h5.4l-2.7-5.5
			L109.3,47.7z"/>
		<path class="st1" d="M138.7,36.3c1.6,0,3,0,4.2,0.1s2.3,0.2,3.3,0.3c1,0.2,1.8,0.4,2.5,0.6c0.7,0.3,1.2,0.6,1.7,1s0.9,0.8,1.1,1.4
			c0.3,0.6,0.5,1.2,0.6,1.8c0.1,0.7,0.2,1.4,0.2,2.3h-7.4c0-0.3-0.1-0.6-0.2-0.8c-0.1-0.2-0.4-0.4-0.7-0.5c-0.4-0.2-1-0.3-1.8-0.4
			c-0.8-0.1-1.9-0.1-3.2-0.1c-1.8,0-3.1,0-3.9,0.1s-1.3,0.2-1.6,0.3c-0.2,0.1-0.3,0.3-0.3,0.6s0.3,0.4,0.8,0.5s2.1,0.2,4.8,0.5h0.1
			c5.3,0.4,8.6,0.8,10.1,1.1c1.9,0.4,3.1,1.2,3.6,2.3c0.4,0.7,0.5,1.8,0.5,3.1c0,1-0.1,1.8-0.2,2.4c-0.1,0.6-0.4,1.2-0.8,1.7
			c-0.4,0.5-0.9,0.9-1.5,1.2s-1.5,0.5-2.6,0.7s-2.4,0.3-3.8,0.4c-1.4,0.1-3.2,0.1-5.3,0.1c-1.4,0-2.7,0-3.7-0.1s-2-0.1-2.9-0.2
			c-0.9-0.1-1.7-0.2-2.3-0.4s-1.1-0.4-1.6-0.7s-0.9-0.6-1.1-0.9c-0.3-0.3-0.5-0.8-0.7-1.3s-0.3-1.1-0.4-1.7
			c-0.1-0.6-0.1-1.3-0.1-2.1h7.2c0,0.5,0.1,0.8,0.4,1c0.3,0.2,0.8,0.3,1.6,0.4c0.8,0.1,2.1,0.1,3.9,0.1c0.2,0,0.4,0,0.7,0
			c2.3,0,3.7,0,4.2-0.1s0.7-0.3,0.7-0.8c0-0.3-0.2-0.4-0.5-0.5s-1.3-0.2-2.8-0.3c-1.1-0.1-2.1-0.2-2.8-0.2c-1.3-0.1-2.4-0.2-3-0.3
			c-0.7-0.1-1.5-0.2-2.6-0.3c-1-0.1-1.8-0.3-2.3-0.4c-0.5-0.1-1.1-0.3-1.8-0.6c-0.7-0.2-1.2-0.5-1.5-0.8s-0.6-0.6-1-1.1
			c-0.3-0.4-0.6-0.9-0.7-1.4s-0.2-1.1-0.2-1.8c0-0.8,0.1-1.5,0.2-2.1s0.3-1.1,0.6-1.6c0.3-0.5,0.6-0.9,0.9-1.2s0.8-0.6,1.4-0.9
			c0.6-0.2,1.2-0.4,1.8-0.6s1.4-0.3,2.3-0.3c0.9-0.1,1.8-0.1,2.7-0.2C136.4,36.3,137.5,36.3,138.7,36.3z"/>
	</g>
	<g class="st0">
		<path class="st2" d="M91.4,23.6c-1.1-0.1-2-0.4-2.9-0.9c-0.9-0.6-1.3-1.4-1.2-2.4c0.3-1.9,1.7-3.9,4.2-5.9s5.5-3.8,9.1-5.5
			c3.5-1.7,7-3.1,10.4-4.2s6.2-1.8,8.4-1.9c6.4-0.5,10.8,1.9,8.3,8.8c-1,2.7-2.7,5.3-5,7.7s-4.8,4.5-7.5,6.3s-5.4,3.2-7.9,4.2
			c-0.1,0-0.1,0-0.2,0c-0.6,0.2-0.6,0.3-0.1,0.6c0.8,0.6,1.8,1.4,3,2.3c4.4,3.4,10.5,8.1,14.3,8.1c0.8,0,0.9,0.8,0,0.8
			c-4.4,0-11.1-4.9-15.8-8.4c-1-0.7-1.9-1.4-2.7-2c-0.2-0.1-0.3-0.2-0.4-0.3c-0.4-0.3-0.5-0.3-1-0.2c-0.1,0-0.2,0.1-0.4,0.1
			c-1.4,0.3-2.3,0.2-2.7-0.3c-0.4-0.5-0.5-1-0.3-1.5c0.2-0.6,0.6-0.9,1.2-1c0.7,0,1.6,0.4,2.1,0.7c0.1,0.1,0.2,0.1,0.3,0.1
			c0.5,0.3,0.5,0.3,0.9,0.1c0.1,0,0.2-0.1,0.4-0.2c3.2-1.2,6.3-2.9,9.5-5.2s5.8-4.7,7.9-7.4c1.7-2.1,2.8-4.1,3.4-6.1
			c0.6-1.9,0.3-3.5-0.7-4.7c-1.1-1.2-3.3-1.7-6.6-1.5c-2,0.2-4.7,0.8-8,1.9s-6.7,2.4-10.2,4s-6.4,3.3-8.9,5.2
			c-2.4,1.8-3.8,3.6-4.1,5.4c-0.1,1.6,3.5,2.4,3.7,1.5c0.1-0.4,0.4-0.5,0.7-0.4c0.8,0.1,1.8,0.7,1.1,1.5
			C93.3,23.5,92.5,23.7,91.4,23.6z M101.3,20.4c0.9-1.4,1.7-2.9,2.5-4.3c0.2-0.3,0.2-0.4-0.1-0.5c-0.6-0.2-0.5-0.6-0.2-1.1
			c0.4-0.8,2.4-3.2,3.4-2.3c0.3,0.3,0.2,0.7,0.1,1c-0.9,1.6-1.8,3.1-2.8,4.7l-0.6,0.9c-0.3,0.5-0.9,1.5-1.8,2.9
			c-1.3,2.1-2.9,4.6-4.7,7.5c-1.8,2.9-3.4,5.5-4.8,7.9s-2.2,4-2.4,4.6c0,0.3-0.2,0.7-0.6,0.6C89,42.4,89,42,89.1,41.7v-0.1
			c0.2-0.8,0.8-2.3,1.9-4.3s2.4-4.3,3.9-6.7s2.8-4.5,4-6.4c0.9-1.4,1.5-2.4,1.9-3.1C101,20.8,101.2,20.6,101.3,20.4z M103,29.7
			c0.2,0,0.4,0,0.1-0.1c0,0-0.1,0-0.1-0.1c-0.3-0.2-0.9-0.5-0.8,0c0.1,0.2,0.5,0.2,0.6,0.2H103L103,29.7z"/>
		<path class="st2" d="M110.8,46.1c1.1-2.3,2.5-5.1,4.3-8.4c2.2-4.1,4.4-8,6.5-11.7c0.6-1,1.1-1.8,1.5-2.6c1.5-2.7,2.6-4.5,3.4-5.4
			s1.5-1,2.1-0.1c0,0.7-0.9,1.9-2.1,3.1c-0.8,0.9-1.5,1.8-2,2.6c-1.2,2.1-2.6,4.5-4.2,7.4s-3,5.4-4,7.3c-0.3,0.5-0.6,1-0.9,1.6
			c-1.3,2.3-2.6,4.7,0.6,0.3c0.2-0.3,0.5-0.6,0.7-0.9c2.4-3.2,5-6.7,8.1-10.4s5.9-6.7,8.7-8.9c1.3-1,2.2-1.3,2.7-1s0.8,0.9,0.7,1.8
			c-0.1,1.6-0.8,3.3-1.9,5.1c-1.1,1.7-2.4,3.3-4,4.7c-1.5,1.4-2.8,2.5-4,3.2s-1.9,0.8-2.1,0.4c-0.1-0.2,0.1-0.2,0.3-0.3
			c0.8-0.2,1.9-0.8,3.1-2c1.3-1.1,2.6-2.4,3.8-3.9c1.3-1.5,2.3-3,3-4.3c0.7-1.4,0.9-2.4,0.6-3.1c-0.1-0.3-0.6-0.1-1.4,0.6
			c-2.4,1.9-4.9,4.5-7.8,7.8c-2.8,3.3-5.6,6.9-8.3,10.6c-2.7,3.7-5.1,7-7.2,9.9c-0.5,0.7-1,1.4-1.4,2c-0.5,0.6-1-0.3-0.7-1.1
			C109,49.8,109.7,48.4,110.8,46.1z"/>
		<path class="st2" d="M151.7,24c-0.4,1-0.9,2-1.5,2.9c-0.1,0.1-0.1,0.2-0.2,0.3c-0.3,0.6-0.7,1.2-1,1.8c-0.5,1-1.1,1.9-1.7,2.9
			c-0.6,0.9-0.6,1-0.3,1.3l0,0c0.2,0.3,0.1,0.6-0.1,0.8c-1.1,0.8-1.8,1.5-2.5,2.6c-0.4,0.6-0.9,1.4-1.5,2.4
			c-1.3,2.3-2.8,4.6-4.4,7.1c-1.6,2.5-2.8,4.1-3.7,4.8c-1.2,0.8-2,0.3-1.8-1.1c0.3-1.2,0.8-2.5,1.6-3.8c0.7-1.3,1.5-2.5,2.3-3.5
			c1.6-2,3.3-4,5.2-5.8c1.2-1.2,2-2.1,3-3.6l3.5-5.7c0.3-0.4,0.6-0.9,0.8-1.3c0.7-1.3-0.4-0.4-1,0.1c-0.1,0.1-0.2,0.1-0.2,0.2
			c-0.4,0.3-1.1,0.9-2,1.6c-1.1,0.9-2.4,2-3.8,3.1c-1.4,1.2-2.7,2.1-4,2.9c-1.2,0.8-2.1,1.2-2.7,1.2c-1.3,0-1.5-1-1.3-2.1
			c0.3-1.7,1.2-3.5,2.6-5.4c1.4-1.9,3-3.6,4.9-4.9s3.7-2,5.5-1.8c1.4,0.2,1.8,1.8,0.2,2c-0.3,0.1-0.4,0-0.5-0.2s-0.3-0.5-1.2-0.3
			c-1.4,0.3-2.9,1-4.3,2.2c-1.5,1.2-2.8,2.6-3.9,4.1c-1.1,1.6-1.8,3-2.1,4.4c-0.4,2.3,2.9-0.5,3.2-0.9c2.8-2.4,5.7-4.7,8.6-7
			c0.9-0.7,1.9-1.4,2.8-2.1C151,23,152.1,23.4,151.7,24z M138.8,43.6c0.2-0.4,0.4-0.7,0.5-0.8c0,0,0.1-0.1,0.1-0.2
			c0.4-0.6,1.2-1.8,0.9-2c-0.6-0.4-6.9,9.7-5.8,9.3C135.4,49.6,137.7,45.5,138.8,43.6z"/>
	</g>
	<g class="st0">
		<path class="st1" d="M66.3,14.3c1.7,0,3.2,0.1,4.5,0.3c1.4,0.2,2.5,0.5,3.4,0.8s1.7,0.8,2.4,1.3c0.7,0.5,1.2,1,1.6,1.5
			s0.7,1.1,0.9,1.7c0.2,0.6,0.4,1.1,0.5,1.6s0.1,1,0.1,1.5v0.7c0,0.5,0,1-0.1,1.5s-0.2,1-0.5,1.6c-0.2,0.6-0.5,1.2-0.9,1.7
			s-0.9,1-1.6,1.5s-1.5,0.9-2.4,1.3s-2,0.6-3.4,0.9c-1.4,0.2-2.9,0.3-4.5,0.3H44.4c-1.7,0-3.2-0.1-4.5-0.3c-1.4-0.2-2.5-0.5-3.4-0.9
			s-1.7-0.8-2.4-1.3s-1.2-1-1.6-1.5c-0.4-0.5-0.7-1.1-0.9-1.7c-0.2-0.6-0.4-1.1-0.5-1.6s-0.1-1-0.1-1.5V23c0-0.5,0-1,0.1-1.5
			s0.2-1,0.5-1.6c0.2-0.6,0.5-1.2,0.9-1.7s0.9-1,1.6-1.5c0.7-0.5,1.5-0.9,2.4-1.3s2.1-0.6,3.4-0.8c1.4-0.2,2.9-0.3,4.5-0.3
			C44.4,14.3,66.3,14.3,66.3,14.3z M73.5,23.1c0-0.4-0.1-0.9-0.2-1.2c-0.1-0.4-0.3-0.8-0.7-1.2c-0.3-0.4-0.8-0.8-1.3-1.1
			c-0.5-0.3-1.3-0.5-2.2-0.7c-0.8-0.2-1.7-0.3-2.6-0.3c-0.2,0-21.8,0-21.9,0c-4.9,0.1-7.3,1.6-7.3,4.6v0.3c0,0.6,0.1,1.1,0.3,1.6
			s0.6,1,1.1,1.5s1.3,0.9,2.4,1.2c1,0.3,2.2,0.4,3.6,0.5c0.1,0,21.5,0,21.7,0c1.3,0,2.4-0.2,3.3-0.4c1.1-0.3,1.9-0.7,2.4-1.2
			s0.9-1,1.1-1.5s0.3-1,0.3-1.6L73.5,23.1L73.5,23.1z"/>
		<path class="st1" d="M93,32.8c-2,0-3.7-0.2-5.1-0.5c-1.5-0.3-2.6-0.7-3.4-1.1s-1.4-1-1.9-1.6s-0.8-1.2-0.9-1.7s-0.2-1-0.2-1.6V26
			H88c0.1,1.9,1.5,2.9,5.3,2.9h1.4c1.2,0,1.8-0.1,2.6-0.2c0.8-0.1,1.4-0.3,1.8-0.5s0.6-0.4,0.7-0.6s0.2-0.4,0.2-0.7
			c0-0.4-0.1-0.7-0.3-0.9c-0.2-0.2-0.7-0.4-1.5-0.6s-1.9-0.3-3.4-0.3h-1.9h-1.5c-6.4-0.2-9.6-1.9-9.6-5.3v-0.2
			c0-0.6,0.1-1.1,0.2-1.6c0.2-0.5,0.5-1,1-1.5s1.1-0.9,1.9-1.3c0.8-0.3,1.8-0.6,3.1-0.8c1.3-0.2,2.8-0.3,4.6-0.3h1.8
			c1.8,0,3.4,0.1,4.8,0.3s2.5,0.5,3.3,0.9s1.5,0.8,2,1.3s0.9,1,1.1,1.5s0.3,1.1,0.3,1.6V20h-6.4c0-0.2-0.1-0.4-0.2-0.5
			s-0.2-0.3-0.4-0.5c-0.2-0.2-0.5-0.4-0.9-0.6s-0.9-0.3-1.7-0.4c-0.7-0.1-1.3-0.2-2.3-0.2h-1c-1.5,0-2.4,0.1-3.2,0.3
			c-0.8,0.2-1.3,0.3-1.4,0.5C88.1,18.8,88,19,88,19.4c0,0.3,0.1,0.6,0.3,0.8c0.2,0.2,0.6,0.4,1.3,0.5c0.7,0.2,1.7,0.3,3,0.3h1.5H96
			c3.7,0.1,6.3,0.5,8,1.4c1.6,0.9,2.5,2.2,2.5,4v0.3c0,0.7-0.1,1.3-0.2,1.8c-0.2,0.5-0.5,1.1-1,1.6c-0.5,0.6-1.2,1-2,1.4
			s-2,0.7-3.4,0.9s-3.1,0.4-5,0.4H93L93,32.8z"/>
	</g>
</g>
</svg>
